<?xml version="1.0" encoding="UTF-8"?>
<svg id="Layer_1" data-name="Layer 1" xmlns="http://www.w3.org/2000/svg" viewBox="0 0 1332.83 371.09">
  <defs>
    <style>
      .cls-1 {
        fill: #713b2a;
      }
    </style>
  </defs>
  <path class="cls-1" d="M426.32,197.33c-2.02-6.57-4.21-12.17-7.69-17.51-5.83-8.95-16.99-10.69-25.58-4.44-20.16,14.67-46.14,47.02-64.38,66.75l-30.26,32.72c-5.66,6.12-11.71,11.33-18.76,15.63-18.45,11.25-41.51,6.64-54.33-10.57-9.89-13.28-13.57-33.92-17.32-50.73l-8.18-36.71c-1.28-5.76-3.59-10.88-7.37-15.22-4.88-5.6-12.06-7.2-18.75-3.71-5.59,2.91-10.26,6.84-14.62,11.72-17.93,20.03-34,41.17-48.3,63.96l-17.95,28.61-16.68,25.95c-9.51,14.8-26.1,21.06-43.51,17.89-15.61-2.84-28.58-13.39-31.86-29.33-3.94-19.19,7.39-38.24,18.61-54.34,28.93-41.52,66.71-85.3,106.25-116.96,30.32-24.28,73.37-49.98,106.44-19.41,15.14,13.99,21.63,32.12,28.43,50.9l8.97,24.75c1.22,3.36,4.31,5.6,7.11,6.37,3.39.93,7.3.06,9.78-2.5l16.21-16.78c12.28-12.71,23.48-25.66,36.49-37.67,16.72-15.45,38.32-32.83,60.62-37.47,13.64-2.83,27.88-1.29,40.46,4.62,17.65,8.28,30.92,29.41,38.9,47.19l13.15,35.6,15.64,48.73c4.81,14.97,10.06,29.04,16.79,43.21,5.47,11.52,12.19,21.7,20.4,31.38l10.65,12.58c8.84,12.68,8.8,28.58.38,41.4-6.63,10.09-16.73,16.74-29.18,17.14-7.49.24-15.1-1.36-21.66-5.16-6.62-3.84-12.62-8.78-17.15-15.02-19.7-27.13-35.01-66.51-44.96-98.9l-16.8-54.66Z"/>
  <g>
    <path class="cls-1" d="M831.21,323.23c-56.99,30.14-129.41,42.05-190.15,17.13-49.07-20.13-80.9-64.32-71.96-118.33,3.98-24.07,15.26-45.43,30.97-63.94,40.17-47.34,104.83-72.55,166.28-72.4,37.14.09,76.86,11.07,106.04,34.13,29.71,23.49,43.9,58.51,38.89,96.19-4.21,31.72-19.29,59.92-42.98,81.22-11.4,10.24-23.37,18.75-37.08,26ZM771.19,272.22c28.3-11.3,58.09-31.66,67.79-61.19,3.46-10.54,3.14-21.86-2.6-31.32-9.95-16.4-33.22-26.17-52.22-28.18-11.56-1.22-22.86-2.14-34.44-.63-22.46,2.93-43.53,9.66-62.75,21.3-21.64,13.11-43.14,35.19-46.67,60.49-3.97,28.38,20.77,44.42,47.08,48.9,28.35,4.83,57.1,1.29,83.82-9.38Z"/>
    <g>
      <path class="cls-1" d="M1055.34,250.84c6.91,25.85,7.02,57.68-6.34,80.85-5.99,10.39-15.23,18.65-27.11,21.4l-14.93.42c-4.1.12-7.15-.88-10.61-2.42-15.87-7.03-25.56-22.3-24.31-39.8,1.52-21.28,10.2-32.77,2.85-63.03l-12.87-43.31c-3.57-12.01-6.32-23.39-6.81-35.98-1.2-30.82,9.96-59.7,31.48-81.71,27.58-28.22,65.92-42.49,104.94-47.1,24.92-2.94,58.44-.65,81.02,9.7,19.33,8.86,23.83,31.11,14.2,49.39-5.34,10.13-15.24,16.32-26.69,17.35-7.57.68-14.68-.25-22.3-1.47-22.3-3.57-44.91-2.57-66.12,5.31-23.68,8.79-40.53,27.83-38.75,53.83.59,8.56,3.03,16.22,5.65,24.4l16.71,52.19Z"/>
      <path class="cls-1" d="M1317.5,110.61c-13.64,9.96-31.76,10.98-48.47,9.15-7.69-.84-14.9-2.97-21.51-6.8-6.04-3.49-8.89-9.56-8.42-16.47.34-5.02,2.77-9.3,6.46-11.8,4.24-2.87,9.05-3.91,14.01-2.42l14.44,4.35c7.81,2.35,18.25.63,18.94-4.23s-5.53-7.45-11.61-10.04c-15.58-6.61-33.84-15.31-34.32-32.85-.26-9.61,2.74-17.81,9.37-24.5,10.53-10.65,25.05-15.32,40.03-14.97,9.87.23,19.04,1.26,27.79,5.55,7.09,3.48,9.96,10.37,8.07,17.95-2.17,8.69-9.84,13.17-18.65,10.38-8.5-2.69-19.11-5.41-25.96-.37-1.49,1.1-2.51,2.47-2.62,3.98-.8,11.45,33.15,13.58,42.57,32.11,7.29,14.33,2.87,31.52-10.1,40.99Z"/>
    </g>
  </g>
</svg>