<svg width="1024" height="1024" viewBox="0 0 1024 1024" fill="none" xmlns="http://www.w3.org/2000/svg">
<g clip-path="url(#clip0_1_2)">
<path d="M358.521 519.027C357.23 514.831 355.83 511.254 353.606 507.844C349.879 502.128 342.745 501.016 337.254 505.008C324.367 514.377 307.759 535.038 296.099 547.639L276.756 568.535C273.138 572.444 269.27 575.771 264.764 578.518C252.97 585.703 238.229 582.758 230.034 571.767C223.712 563.286 221.359 550.104 218.962 539.368L213.733 515.923C212.915 512.244 211.438 508.974 209.022 506.202C205.902 502.626 201.313 501.604 197.036 503.833C193.463 505.691 190.478 508.201 187.691 511.318C176.229 524.11 165.956 537.612 156.815 552.167L145.341 570.439L134.678 587.012C128.599 596.464 117.994 600.462 106.865 598.437C96.8863 596.624 88.5953 589.886 86.4986 579.706C83.98 567.45 91.2226 555.283 98.3949 545.001C116.888 518.484 141.039 490.523 166.314 470.303C185.696 454.797 213.215 438.383 234.355 457.907C244.033 466.842 248.182 478.421 252.529 490.415L258.263 506.221C259.043 508.367 261.018 509.798 262.808 510.29C264.975 510.884 267.474 510.328 269.06 508.693L279.422 497.976C287.272 489.859 294.431 481.588 302.748 473.918C313.436 464.051 327.243 452.951 341.498 449.988C350.218 448.18 359.32 449.164 367.362 452.938C378.645 458.226 387.127 471.721 392.229 483.076L400.635 505.813L410.632 536.935C413.707 546.495 417.063 555.481 421.365 564.531C424.862 571.888 429.158 578.39 434.406 584.572L441.214 592.607C446.864 600.705 446.839 610.859 441.457 619.047C437.218 625.491 430.762 629.738 422.803 629.994C418.016 630.147 413.151 629.125 408.958 626.698C404.726 624.246 400.89 621.091 397.995 617.105C385.401 599.779 375.615 574.628 369.254 553.942L358.515 519.033L358.521 519.027Z" fill="#713B2A"/>
<path d="M617.344 599.434C580.913 618.683 534.62 626.289 495.792 610.374C464.424 597.518 444.077 569.295 449.792 534.801C452.336 519.429 459.547 505.787 469.59 493.966C495.268 463.732 536.601 447.631 575.883 447.727C599.624 447.784 625.015 454.797 643.668 469.524C662.66 484.526 671.73 506.892 668.528 530.957C665.837 551.215 656.197 569.225 641.053 582.829C633.766 589.369 626.114 594.804 617.35 599.434H617.344ZM578.977 566.856C597.067 559.639 616.11 546.636 622.311 527.776C624.522 521.045 624.318 513.815 620.649 507.773C614.288 497.299 599.413 491.06 587.267 489.776C579.878 488.997 572.654 488.409 565.252 489.374C550.895 491.245 537.426 495.543 525.14 502.977C511.306 511.35 497.563 525.452 495.306 541.61C492.768 559.735 508.583 569.979 525.402 572.84C543.524 575.925 561.902 573.664 578.983 566.849L578.977 566.856Z" fill="#713B2A"/>
<path d="M760.617 553.201C765.034 569.711 765.104 590.039 756.564 604.837C752.735 611.472 746.829 616.748 739.234 618.504L729.69 618.772C727.07 618.849 725.12 618.21 722.908 617.227C712.763 612.737 706.569 602.985 707.368 591.808C708.34 578.218 713.888 570.879 709.19 551.553L700.963 523.893C698.681 516.223 696.923 508.955 696.61 500.914C695.843 481.231 702.977 462.786 716.733 448.729C734.363 430.706 758.872 421.593 783.815 418.649C799.745 416.771 821.172 418.233 835.606 424.844C847.963 430.502 850.839 444.712 844.684 456.387C841.27 462.857 834.942 466.81 827.622 467.468C822.783 467.902 818.238 467.308 813.367 466.529C799.112 464.249 784.659 464.887 771.1 469.92C755.963 475.534 745.192 487.694 746.33 504.299C746.707 509.766 748.267 514.658 749.942 519.882L760.623 553.214L760.617 553.201Z" fill="#713B2A"/>
<path d="M928.2 463.642C919.481 470.003 907.898 470.655 897.216 469.486C892.301 468.949 887.692 467.589 883.466 465.143C879.605 462.914 877.783 459.037 878.084 454.624C878.301 451.418 879.855 448.685 882.213 447.088C884.924 445.255 887.999 444.591 891.169 445.542L900.4 448.321C905.392 449.822 912.066 448.723 912.507 445.619C912.948 442.515 908.972 440.861 905.085 439.207C895.126 434.985 883.454 429.429 883.147 418.227C882.981 412.09 884.898 406.853 889.136 402.58C895.868 395.778 905.149 392.796 914.725 393.019C921.035 393.166 926.896 393.824 932.49 396.564C937.022 398.786 938.857 403.187 937.648 408.028C936.261 413.578 931.358 416.439 925.727 414.657C920.293 412.939 913.511 411.202 909.132 414.421C908.179 415.123 907.527 415.998 907.457 416.963C906.946 424.275 928.648 425.635 934.67 437.47C939.33 446.622 936.504 457.6 928.213 463.648L928.2 463.642Z" fill="#713B2A"/>
</g>
<defs>
<clipPath id="clip0_1_2">
<rect width="852" height="237" fill="white" transform="translate(86 393)"/>
</clipPath>
</defs>
</svg>
