<svg xmlns="http://www.w3.org/2000/svg" viewBox="0 0 600 600">
  <rect width="600" height="600" fill="#F5F0E8"/>
  <g stroke="#8B1A1A" stroke-width="4" stroke-linecap="round" stroke-linejoin="round" fill="none">
    <!-- Coffee bag body -->
    <path d="M175 180 C170 180, 155 185, 150 200 L130 480 C128 500, 140 520, 165 525 L435 525 C460 520, 472 500, 470 480 L450 200 C445 185, 430 180, 425 180 Z"/>
    <!-- Bag top fold -->
    <path d="M175 180 C175 155, 185 140, 220 135 L380 135 C415 140, 425 155, 425 180"/>
    <!-- Bag fold lines -->
    <path d="M200 135 L210 105 C215 95, 240 88, 300 85 C360 88, 385 95, 390 105 L400 135"/>
    <!-- Bag tie -->
    <path d="M270 105 C275 90, 285 82, 300 80 C315 82, 325 90, 330 105"/>

    <!-- Mountain silhouette -->
    <g stroke-width="3.5">
      <!-- Large mountain -->
      <path d="M190 420 L270 290 C275 282, 285 278, 300 285 L330 310 L370 270 C375 264, 385 264, 390 270 L410 420"/>
      <!-- Snow caps / peak detail -->
      <path d="M255 310 L270 290 C275 282, 285 282, 295 290"/>
      <path d="M355 295 L370 270 C375 264, 385 268, 390 278"/>
      <!-- Rolling hill in front -->
      <path d="M170 430 C220 400, 280 410, 340 400 C400 390, 430 405, 450 430"/>
    </g>

    <!-- Label line -->
    <path d="M220 470 L380 470" stroke-width="2"/>

    <!-- Coffee beans -->
    <g transform="translate(95, 460) rotate(-20)">
      <ellipse cx="0" cy="0" rx="24" ry="15"/>
      <path d="M-14 -8 C-4 0, 6 0, 16 -8"/>
    </g>
    <g transform="translate(490, 440) rotate(30)">
      <ellipse cx="0" cy="0" rx="24" ry="15"/>
      <path d="M-14 -8 C-4 0, 6 0, 16 -8"/>
    </g>
    <g transform="translate(110, 530) rotate(10)">
      <ellipse cx="0" cy="0" rx="20" ry="12"/>
      <path d="M-12 -6 C-3 0, 5 0, 13 -6"/>
    </g>
  </g>
</svg>
